<svg width="24" height="24" viewBox="0 0 24 24" fill="none" xmlns="http://www.w3.org/2000/svg">
<path d="M15 12.2871C15 13.9463 13.6592 15.2871 12 15.2871C10.3408 15.2871 9 13.9463 9 12.2871C9 10.6279 10.3408 9.28711 12 9.28711C13.6592 9.28711 15 10.6279 15 12.2871Z" stroke="#5B5B5B" stroke-width="1.5" stroke-linecap="round" stroke-linejoin="round"/>
<path d="M12 18.7871C15.2468 18.7871 18.2729 17.1533 20.3792 14.3255C21.207 13.2179 21.207 11.3563 20.3792 10.2487C18.2729 7.42095 15.2468 5.78711 12 5.78711C8.75319 5.78711 5.72713 7.42095 3.62085 10.2487C2.79305 11.3563 2.79305 13.2179 3.62085 14.3255C5.72713 17.1533 8.75319 18.7871 12 18.7871Z" stroke="#5B5B5B" stroke-width="1.5" stroke-linecap="round" stroke-linejoin="round"/>
<path d="M18.7212 5.57764L5.28125 18.9963" stroke="#5B5B5B" stroke-width="1.5" stroke-linecap="round" stroke-linejoin="round"/>
</svg>
