<svg width="24" height="24" viewBox="0 0 24 24" fill="none" xmlns="http://www.w3.org/2000/svg">
<path d="M14.5 12C14.5 13.3827 13.3827 14.5 12 14.5C10.6173 14.5 9.5 13.3827 9.5 12C9.5 10.6173 10.6173 9.5 12 9.5C13.3827 9.5 14.5 10.6173 14.5 12Z" stroke="#5B5B5B" stroke-width="1.5" stroke-linecap="round" stroke-linejoin="round"/>
<path d="M12 18.5C15.2468 18.5 18.2729 16.8662 20.3792 14.0384C21.207 12.9308 21.207 11.0692 20.3792 9.96163C18.2729 7.13384 15.2468 5.5 12 5.5C8.75319 5.5 5.72713 7.13384 3.62085 9.96163C2.79305 11.0692 2.79305 12.9308 3.62085 14.0384C5.72713 16.8662 8.75319 18.5 12 18.5Z" stroke="#5B5B5B" stroke-width="1.5" stroke-linecap="round" stroke-linejoin="round"/>
</svg>
