<svg width="56" height="56" viewBox="0 0 56 56" fill="none" xmlns="http://www.w3.org/2000/svg">
<rect width="56" height="56" rx="8" fill="#62C991"/>
<g clip-path="url(#clip0_21_1239)">
<path d="M41.3678 17.0869L35.5668 37.356H32.6376L27.9853 21.0419L23.1607 37.356L20.2602 37.3851L14.6602 17.0869H17.4458L21.8109 34.2735L26.6355 17.0869H29.5648L34.1596 34.2153L38.5535 17.0869H41.3678Z" fill="white"/>
<path d="M40.9552 18.1528L41.9587 18.4473C42.0501 18.1278 41.9879 17.7832 41.7905 17.5172C41.5932 17.2512 41.2838 17.0947 40.9552 17.0947V18.1528ZM35.3274 37.8188V38.8769C35.7924 38.8769 36.2014 38.5657 36.3308 38.1133L35.3274 37.8188ZM32.4856 37.8188L31.4818 38.1124C31.611 38.5652 32.0202 38.8769 32.4856 38.8769V37.8188ZM27.9721 21.9901L28.9759 21.6965C28.8473 21.2456 28.4408 20.9343 27.9773 20.932C27.5138 20.9297 27.1042 21.2369 26.9712 21.6865L27.9721 21.9901ZM23.2915 37.8188L23.3019 38.8768C23.7596 38.8722 24.1611 38.5664 24.2924 38.1223L23.2915 37.8188ZM20.4776 37.847L19.4714 38.1317C19.5985 38.5927 20.0154 38.9097 20.488 38.905L20.4776 37.847ZM15.0448 18.1528V17.0947C14.718 17.0947 14.4101 17.2496 14.2125 17.5132C14.015 17.7768 13.9506 18.1188 14.0385 18.4375L15.0448 18.1528ZM17.7473 18.1528L18.7591 17.8892C18.6404 17.4216 18.2241 17.0947 17.7473 17.0947V18.1528ZM21.9821 34.828L20.9703 35.0915C21.0878 35.5544 21.497 35.8799 21.9689 35.886C22.4408 35.892 22.858 35.577 22.987 35.1173L21.9821 34.828ZM26.6627 18.1528V17.0947C26.1957 17.0947 25.7854 17.4086 25.6578 17.8635L26.6627 18.1528ZM29.5045 18.1528L30.5127 17.8754C30.3891 17.4146 29.976 17.0947 29.5045 17.0947V18.1528ZM33.9622 34.7716L32.954 35.0489C33.0781 35.5119 33.4943 35.8323 33.968 35.8296C34.4417 35.827 34.8543 35.5019 34.9734 35.0376L33.9622 34.7716ZM38.2249 18.1528V17.0947C37.749 17.0947 37.3333 17.4204 37.2137 17.8868L38.2249 18.1528ZM39.9517 17.8583L34.3239 37.5243L36.3308 38.1133L41.9587 18.4473L39.9517 17.8583ZM35.3274 36.7607H32.4856V38.8769H35.3274V36.7607ZM33.4893 37.5252L28.9759 21.6965L26.9684 22.2836L31.4818 38.1124L33.4893 37.5252ZM26.9712 21.6865L22.2907 37.5153L24.2924 38.1223L28.973 22.2936L26.9712 21.6865ZM23.2812 36.7608L20.4673 36.789L20.488 38.905L23.3019 38.8768L23.2812 36.7608ZM21.4839 37.5623L16.051 17.8681L14.0385 18.4375L19.4714 38.1317L21.4839 37.5623ZM15.0448 19.2109H17.7473V17.0947H15.0448V19.2109ZM16.7354 18.4163L20.9703 35.0915L22.9939 34.5645L18.7591 17.8892L16.7354 18.4163ZM22.987 35.1173L27.6676 18.4421L25.6578 17.8635L20.9771 34.5387L22.987 35.1173ZM26.6627 19.2109H29.5045V17.0947H26.6627V19.2109ZM28.4963 18.4302L32.954 35.0489L34.9704 34.4942L30.5127 17.8754L28.4963 18.4302ZM34.9734 35.0376L39.2361 18.4188L37.2137 17.8868L32.951 34.5056L34.9734 35.0376ZM38.2249 19.2109H40.9552V17.0947H38.2249V19.2109Z" fill="white"/>
</g>
<defs>
<clipPath id="clip0_21_1239">
<rect width="28" height="22" fill="white" transform="translate(14 17)"/>
</clipPath>
</defs>
</svg>
